<?xml version="1.0" encoding="UTF-8"?><svg id="Layer_2" xmlns="http://www.w3.org/2000/svg" width="200" height="200" xmlns:xlink="http://www.w3.org/1999/xlink" viewBox="0 0 200 200"><defs><style>.cls-1{fill:#005461;}.cls-2{fill:#aeb2bd;filter:url(#drop-shadow-1);}.cls-3{fill:#fff8d6;}.cls-4{fill:url(#radial-gradient);}</style><filter id="drop-shadow-1" filterUnits="userSpaceOnUse"><feOffset dx="1" dy="3"/><feGaussianBlur result="blur" stdDeviation="5"/><feFlood flood-color="#989fac" flood-opacity=".65"/><feComposite in2="blur" operator="in"/><feComposite in="SourceGraphic"/></filter><radialGradient id="radial-gradient" cx="161.84" cy="90.58" fx="161.84" fy="90.58" r="110.98" gradientTransform="translate(-31.23 26.55) scale(.81)" gradientUnits="userSpaceOnUse"><stop offset="0" stop-color="#7fb1b5"/><stop offset=".38" stop-color="#7cafb3"/><stop offset=".58" stop-color="#74acb0"/><stop offset=".74" stop-color="#67a5aa"/><stop offset=".87" stop-color="#549da1"/><stop offset=".99" stop-color="#3c9196"/><stop offset="1" stop-color="#399095"/></radialGradient></defs><g id="Layer_15"><g><path class="cls-2" d="m49,190.42l-39.42-39.42C3.45,144.87,0,136.55,0,127.87v-55.75c0-8.68,3.45-16.99,9.58-23.13L49,9.58C55.13,3.45,63.45,0,72.13,0h55.75c8.68,0,16.99,3.45,23.13,9.58l39.42,39.42c6.13,6.13,9.58,14.45,9.58,23.13v55.75c0,8.68-3.45,16.99-9.58,23.13l-39.42,39.42c-6.13,6.13-14.45,9.58-23.13,9.58h-55.75c-8.68,0-16.99-3.45-23.13-9.58Z"/><path class="cls-4" d="m54.02,181.27l-35.29-35.29c-5.58-5.58-8.71-13.14-8.71-21.03v-49.91c0-7.89,3.13-15.45,8.71-21.03L54.02,18.73c5.58-5.58,13.14-8.71,21.03-8.71h49.91c7.89,0,15.45,3.13,21.03,8.71l35.29,35.29c5.58,5.58,8.71,13.14,8.71,21.03v49.91c0,7.89-3.13,15.45-8.71,21.03l-35.29,35.29c-5.58,5.58-13.14,8.71-21.03,8.71h-49.91c-7.89,0-15.45-3.13-21.03-8.71Z"/><path class="cls-3" d="m82.16,30.86c1,0,1.96.17,2.86.5.9.33,1.69.8,2.36,1.4.67.6,1.17,1.35,1.5,2.26.33.9.37,1.92.1,3.06l-10.44,37.74c-1.34,4.75-2.64,9.38-3.91,13.9-1.27,4.51-2.41,8.58-3.41,12.19-1,3.61-1.82,6.54-2.46,8.78-.64,2.24-.99,3.4-1.05,3.46-.87,3.15-2.08,6.46-3.61,9.94-2.93,6.53-6.97,12.89-12.7,16.96-6.38,4.97-18.18,3.11-22.68-1.81-5.01-4.88-5.82-14.56-2.81-21.33,1.17-2.78,2.71-5.39,4.62-7.83,1.91-2.44,4.06-4.7,6.47-6.77,2.41-2.07,4.85-3.9,7.33-5.47,2.47-1.57,4.87-2.86,7.18-3.87,2.31-1,4.33-1.67,6.07-2.01l13.75-50.08c-3.81,1.61-7.36,3.75-10.64,6.42-3.28,2.68-5.96,5.72-8.03,9.13-1.34,2.21-2.14,4.28-2.41,6.22-.27,1.94-.2,3.56.2,4.87.4,1.31,1.04,2.23,1.91,2.76.87.54,1.81.54,2.81,0,.74,0,1.29.64,1.66,1.91.37,1.27.3,2.66-.2,4.17-1.83,6.2-12.02,8.09-16.91,3.81-1.74-1.5-2.98-3.46-3.71-5.87-.74-2.41-.95-5.08-.65-8.03.3-2.94,1.12-5.82,2.46-8.63,1.67-3.55,4.23-6.99,7.68-10.34,6.79-6.62,15.49-11.97,24.39-15.11,4.45-1.57,8.55-2.36,12.3-2.36Zm-46.67,91.94c0,2.34.39,4.03,1.15,5.07,1.63,2.23,4.45,1.88,6.42.1,1.1-.97,2.12-2.21,3.06-3.71.94-1.5,1.82-3.19,2.66-5.07.84-1.87,1.59-3.73,2.26-5.57.67-1.84,1.24-3.53,1.71-5.07.47-1.54.87-2.78,1.2-3.72l1.61-5.62c-1.94.94-4.08,2.31-6.42,4.11-4.5,3.49-8.8,7.92-11.59,12.8-1.37,2.38-2.06,4.6-2.06,6.67Z"/><g><path class="cls-1" d="m137.1,85.36l-11.51,42.01h-7.88c-.52-2.52-9.11-31.76-8.61-33.49h-.12c.36,1.56-8.23,31.12-8.73,33.49h-8.06l-11.75-42.01h7.65c.44,2.34,8.66,33.4,8.2,34.8h.15c-.2-1.56,8.89-32.43,9.43-34.8h7.18c.34,1.71,9.11,34.27,8.58,34.75h.12c-.23-1.28,7.73-32.57,8.14-34.75h7.21Z"/><path class="cls-1" d="m140.99,125.7v-7.18c4.22,3.71,12.9,5.1,17.42,2.31,3.2-2.09,2.68-6.96-.57-8.85-5.34-3.51-13.28-5.21-16.1-11.6-2.81-7.14,1.89-13.48,9.04-15.04,4.44-1.22,12.39-.74,15.29.81v6.88c-3.59-2.66-10.56-3.6-15.04-1.32-2.47,1.16-3.51,4.36-2.15,6.71.97,1.65,2.62,2.57,4.47,3.53,4.98,2.35,11.21,5,13.68,10.31,1.33,2.74,1.08,7.17-.42,9.62-4.54,7.72-18.4,7.29-25.61,3.81Z"/></g></g></g></svg>